<svg xmlns="http://www.w3.org/2000/svg" viewBox="0 0 68.94 105.88"><defs><style>.cls-1{fill:#42210b;}.cls-2{fill:#603813;}.cls-3{fill:#754c24;}</style></defs><title>Asset 2</title><g id="Layer_2" data-name="Layer 2"><g id="Layer_1-2" data-name="Layer 1"><path class="cls-1" d="M10.21,102.89C6.79,92.9,3.41,83,0,73.11l6.92-3.33L33.71,57a1.44,1.44,0,0,1,1.41-.09q16.62,8,33.29,16l.53.28c-.09.29-.17.57-.26.84q-5.31,15.53-10.62,31c-.23.69-.54,1-1.25.87-1.71-.38-3.45-.65-5.11-1.17-4.51-1.39-9-2.93-13.49-4.34-9.15-2.88-18-1.93-26.69,2Z"/><path class="cls-2" d="M.31,70.15V47.58c0-3,1.25-4.3,4.33-4.3H64.5c3.16,0,4.39,1.23,4.39,4.37V70.11c-.64-.26-1.15-.45-1.65-.69Q51.51,61.89,35.79,54.33a2.39,2.39,0,0,0-2.32,0Q17.75,61.9,2,69.4C1.51,69.64,1,69.85.31,70.15Z"/><path class="cls-2" d="M28.93,36.78l1.12-10.17H39.2c.37,3.34.74,6.69,1.13,10.17h4.74c.48,0,1,0,1.45,0a2.57,2.57,0,0,1,2.62,2.55c0,.48,0,1,0,1.5H20.05a14,14,0,0,1,.25-2.32,2.42,2.42,0,0,1,2.51-1.73C24.81,36.76,26.81,36.78,28.93,36.78Z"/><path class="cls-3" d="M29.92,22c1.93-1.94,2.26-3.46,1.28-5.67a10.48,10.48,0,0,0-.92-1.63,14.12,14.12,0,0,1-2.06-4.08,6.71,6.71,0,0,1,1.75-7A15.15,15.15,0,0,1,36.44,0l-.29.31c-.06.06-.14.11-.22.18a8.08,8.08,0,0,0-3.22,5.34,10.49,10.49,0,0,0,1.07,5.45c.49,1.08,1.07,2.13,1.53,3.22a9.14,9.14,0,0,1,.59,2.12A3.73,3.73,0,0,1,34.73,20,8.56,8.56,0,0,1,29.92,22Z"/><path class="cls-3" d="M36.38,21.25A4.35,4.35,0,0,0,38.21,18a7,7,0,0,0-.72-3,12.36,12.36,0,0,1-.61-1.52,2.18,2.18,0,0,1,1.4-2.88c.46-.19,1-.29,1.59-.47-.12.2-.14.26-.19.3a2.08,2.08,0,0,0-.57,2.43c.15.42.41.8.59,1.22a16.83,16.83,0,0,1,.92,2.35,3.08,3.08,0,0,1-.83,2.93A6.55,6.55,0,0,1,36.38,21.25Z"/></g></g></svg>