<svg xmlns="http://www.w3.org/2000/svg" viewBox="0 0 405.08 25.83"><defs><style>.cls-1{fill:#3f3e3e;}</style></defs><title>borderAsset 1</title><g id="Layer_2" data-name="Layer 2"><g id="Object"><path class="cls-1" d="M403.36,4.66A10.3,10.3,0,0,0,390.64.9a8.43,8.43,0,0,0-4.76,8.44,7,7,0,0,0,2.83,4.58,6.17,6.17,0,0,0,4.65,1.21,5.89,5.89,0,0,0,4.18-3.29,5.19,5.19,0,0,0,0-4.82.5.5,0,0,0-.87.49,4.15,4.15,0,0,1,0,3.89,4.83,4.83,0,0,1-3.43,2.74,5.17,5.17,0,0,1-3.9-1,6.12,6.12,0,0,1-2.43-3.91,7.39,7.39,0,0,1,4.21-7.4c3.8-1.85,9-.29,11.45,3.4a11,11,0,0,1-.72,12.32A13.23,13.23,0,0,1,390,22.27a16.8,16.8,0,0,1-11.19-6.61,40,40,0,0,1-2.29-3.52,26.36,26.36,0,0,0-3.74-5.2A14.06,14.06,0,0,0,354,6.5a27.26,27.26,0,0,0-3.9,4.9c-.29.43-.59.85-.88,1.27q-9.35.18-18.54.43A18.54,18.54,0,0,0,323.8,9a8.4,8.4,0,0,0-6.55,1.07,5.24,5.24,0,0,0-2.36,3.44c-32,.85-62.4,1.56-94.17-.2-7.26-2-13.5-5.72-17.6-10.59a.78.78,0,0,0-1.15,0c-4.1,4.87-10.35,8.62-17.6,10.59-31.78,1.76-62.21,1-94.18.2a5.22,5.22,0,0,0-2.35-3.44A8.42,8.42,0,0,0,81.28,9,18.37,18.37,0,0,0,74.4,13.1q-9.21-.24-18.55-.43c-.29-.42-.59-.84-.88-1.27a26.83,26.83,0,0,0-3.9-4.9,14.06,14.06,0,0,0-18.81.44,26.31,26.31,0,0,0-3.73,5.2,38.55,38.55,0,0,1-2.29,3.52A16.58,16.58,0,0,1,15,22.27,13.22,13.22,0,0,1,3.28,17.52,11,11,0,0,1,2.56,5.2C5,1.51,10.21,0,14,1.8a7.39,7.39,0,0,1,4.21,7.4,6,6,0,0,1-2.43,3.91,5.14,5.14,0,0,1-3.89,1A4.83,4.83,0,0,1,8.45,11.4a4.18,4.18,0,0,1,0-3.89A.5.5,0,0,0,7.54,7a5.16,5.16,0,0,0,0,4.82,5.85,5.85,0,0,0,4.18,3.29,6.15,6.15,0,0,0,4.64-1.21A7,7,0,0,0,19.2,9.34,8.42,8.42,0,0,0,14.44.9,10.3,10.3,0,0,0,1.72,4.66a12,12,0,0,0,.76,13.47,14.17,14.17,0,0,0,11.11,5.22,13.6,13.6,0,0,0,1.56-.09,17.6,17.6,0,0,0,11.89-7c.57-.76,1.09-1.57,1.59-2.38,9.06,0,18.1.12,27.05.29C58,17.24,60.29,19,62.84,19.41c3,.53,6.29-.7,10-3.75l1.28-1.07L86,14.9c19,.51,37.4,1,55.82,1,14,0,27.93-.3,42.17-1.08l.07,0c7.41,1.94,13.77,5.74,17.94,10.69a.74.74,0,0,0,.57.27.78.78,0,0,0,.58-.27c4.16-4.95,10.53-8.75,17.93-10.69l.08,0c14.24.78,28.21,1.08,42.16,1.08,18.42,0,36.83-.5,55.82-1l11.81-.31,1.28,1.07c3.76,3.05,7,4.28,10,3.75,2.55-.46,4.89-2.17,7.16-5.24,9-.17,18-.29,27.05-.29.5.81,1,1.62,1.6,2.38a17.56,17.56,0,0,0,11.88,7,13.77,13.77,0,0,0,1.57.09,14.15,14.15,0,0,0,11.1-5.22A12,12,0,0,0,403.36,4.66ZM33,7.64a13,13,0,0,1,17.42-.4A25.61,25.61,0,0,1,54.14,12l.48.69c-8.3-.15-16.67-.26-25.07-.26A24,24,0,0,1,33,7.64Zm39.29,7.24c-3.52,2.86-6.54,4-9.24,3.54-2.11-.37-4.1-1.77-6.05-4.23q7.89.17,15.68.36Zm3.67-1.74A15.52,15.52,0,0,1,81.54,10a7.35,7.35,0,0,1,5.74.93,4.34,4.34,0,0,1,1.88,2.58L86,13.41C82.67,13.31,79.31,13.23,75.93,13.14ZM202.54,23.93a36,36,0,0,0-15.66-9.79,35.9,35.9,0,0,0,15.66-9.79,36,36,0,0,0,15.66,9.79A36.1,36.1,0,0,0,202.54,23.93Zm148.4-12a26,26,0,0,1,3.75-4.72,13,13,0,0,1,17.43.4,24.8,24.8,0,0,1,3.42,4.75c-8.4,0-16.77.11-25.08.26Zm-31.87,1.45-3.15.08a4.38,4.38,0,0,1,1.88-2.58,7.33,7.33,0,0,1,5.75-.93,15.61,15.61,0,0,1,5.61,3.16C325.78,13.23,322.41,13.31,319.07,13.41Zm23,5c-2.7.48-5.72-.68-9.24-3.54l-.4-.33q7.8-.2,15.69-.36C346.16,16.65,344.18,18.05,342.07,18.42Z"/></g></g></svg>