<svg width="23" height="23" viewBox="0 0 26 23" fill="none" xmlns="http://www.w3.org/2000/svg">
        <path d="M24.9131 4.35119C24.8372 4.25569 24.7219 4.19999 24.5999 4.19999H4.80399L4.63759 2.7692C4.52044 1.7608 3.66639 1.0001 2.6512 1H1.4C1.1791 1 1 1.1791 1 1.4C1 1.6209 1.1791 1.8 1.4 1.8H2.6512C3.26024 1.79995 3.77274 2.2562 3.84319 2.8612L5.63999 18.4292C5.74914 19.364 6.49759 20.0949 7.43478 20.1819C7.64733 21.4887 8.87903 22.3757 10.1858 22.1631C11.1969 21.9986 11.9918 21.2098 12.164 20.1999H16.236C16.4569 21.5069 17.6955 22.3873 19.0024 22.1664C20.3093 21.9455 21.1897 20.7069 20.9688 19.4C20.7479 18.093 19.5094 17.2126 18.2024 17.4335C17.1953 17.6038 16.4062 18.3928 16.236 19.4H12.164C11.9428 18.0946 10.7054 17.2157 9.40008 17.4368C8.40128 17.606 7.61663 18.3848 7.43998 19.3824C6.90798 19.3004 6.49639 18.8731 6.43439 18.3384L6.09679 15.4H18.3816C20.806 15.4088 22.9118 13.7336 23.4483 11.3692L24.9899 4.68919C25.017 4.57069 24.9887 4.44634 24.9131 4.35119ZM18.6 18.2C19.4836 18.2 20.1999 18.9163 20.1999 19.7999C20.1999 20.6836 19.4836 21.3999 18.6 21.3999C17.7163 21.3999 17 20.6836 17 19.7999C17 18.9163 17.7163 18.2 18.6 18.2ZM9.79998 18.2C10.6836 18.2 11.4 18.9163 11.4 19.7999C11.4 20.6836 10.6836 21.3999 9.79998 21.3999C8.91633 21.3999 8.19998 20.6836 8.19998 19.7999C8.19998 18.9163 8.91633 18.2 9.79998 18.2ZM22.6687 11.1896C22.2148 13.1902 20.433 14.6076 18.3816 14.6H6.00439L4.89679 4.99999H24.0967L22.6687 11.1896Z"
          fill="#755232" stroke="#755232" stroke-width="0.5" />
          </svg>