<svg width="27" height="35" viewBox="0 0 27 35" fill="none" xmlns="http://www.w3.org/2000/svg">
<path d="M13.4167 0C6.01022 0.00826007 0.00826008 6.01021 0 13.4167C0 20.6499 12.4571 34.2369 12.988 34.8123C13.0982 34.9319 13.2537 35 13.4167 35C13.5796 35 13.7348 34.9319 13.8453 34.8123C14.3763 34.2369 26.8333 20.6499 26.8333 13.4167C26.8251 6.01021 20.8231 0.00826007 13.4167 0ZM13.4167 33.5457C11.2001 31.0619 1.16667 19.4781 1.16667 13.4167C1.16667 6.65108 6.65109 1.16667 13.4167 1.16667C20.1823 1.16667 25.6667 6.65108 25.6667 13.4167C25.6667 19.4781 15.6332 31.0619 13.4167 33.5457Z" fill="white"/>
<path d="M13.4167 8.16667C10.5171 8.16667 8.16672 10.5171 8.16672 13.4167C8.16672 16.3163 10.5171 18.6667 13.4167 18.6667C16.3163 18.6667 18.6667 16.3163 18.6667 13.4167C18.6636 10.5185 16.3149 8.1698 13.4167 8.16667ZM13.4167 17.5C11.1614 17.5 9.33338 15.672 9.33338 13.4167C9.33338 11.1614 11.1614 9.33334 13.4167 9.33334C15.6717 9.33334 17.5001 11.1614 17.5001 13.4167C17.4975 15.6708 15.6709 17.4974 13.4167 17.5Z" fill="white"/>
</svg>
