<?xml version="1.0"?>
<svg xmlns="http://www.w3.org/2000/svg" xmlns:xlink="http://www.w3.org/1999/xlink" viewBox="0 0 64 64" width="512" height="512"><linearGradient id="a" gradientUnits="userSpaceOnUse" x1="32" x2="32" y1="62.75" y2="2.998"><stop offset="0" stop-color="#006df0"/><stop offset="1" stop-color="#00e7f0"/></linearGradient><g fill="url(#a)"><path d="m50 13a3 3 0 0 0 -2.188-2.874l-1.274-5.1a3.993 3.993 0 0 0 -3.88-3.026h-21.316a3.993 3.993 0 0 0 -3.88 3.03l-1.274 5.1a2.981 2.981 0 0 0 -.119 5.711l.377 4.355a1.02 1.02 0 0 0 -.175.123 1 1 0 0 0 -.269.747l1 16a1 1 0 0 0 .991.937l1.691 19.438a4.974 4.974 0 0 0 4.986 4.559h14.66a4.974 4.974 0 0 0 4.986-4.563l1.691-19.437a1 1 0 0 0 .993-.938l1-16a1 1 0 0 0 -.269-.747 1.02 1.02 0 0 0 -.175-.123l.377-4.355a2.994 2.994 0 0 0 2.067-2.837zm-30.6-7.485a2 2 0 0 1 1.942-1.515h21.316a2 2 0 0 1 1.942 1.515l1.119 4.485h-27.438zm-2.4 6.485h30a1 1 0 0 1 0 2h-30a1 1 0 0 1 0-2zm28.061 24h-26.122l-.875-14h27.872zm.5-16h-27.124l-.347-4h27.82zm-3.237 37.263a3.022 3.022 0 0 1 -2.994 2.737h-14.66a3.022 3.022 0 0 1 -2.994-2.736l-1.676-19.264h24z"/><path d="m32 35a6 6 0 1 0 -6-6 6.006 6.006 0 0 0 6 6zm0-10a4 4 0 1 1 -4 4 4 4 0 0 1 4-4z"/></g></svg>
