<svg width="19" height="19" viewBox="0 0 19 19"
            fill="none" xmlns="http://www.w3.org/2000/svg">
            <path
              d="M11.5087 2.99978C9.16008 0.65316 5.35427 0.654397 3.00716 3.00241C0.65989 5.35058 0.65989 9.15701 3.00716 11.5052C5.35427 13.8532 9.16008 13.8544 11.5087 11.5078C13.8543 9.15685 13.8543 5.35074 11.5087 2.99978ZM3.44944 11.0601C1.34765 8.95788 1.34765 5.54972 3.44944 3.44768C5.55137 1.34564 8.95912 1.34564 11.0609 3.44768C13.1628 5.54972 13.1628 8.95788 11.0611 11.0601C8.95788 13.1592 5.55261 13.1592 3.44944 11.0601Z"
              fill="#755232" />
            <path
              d="M18.5413 16.3023L14.4189 12.1794L14.6427 11.9556C14.7662 11.8319 14.7662 11.6315 14.6427 11.5078L13.7246 10.5896C15.362 7.4064 14.4373 3.50489 11.5454 1.39543C8.65364 -0.713875 4.65646 -0.402342 2.12631 2.12966C-0.40383 4.66166 -0.713006 8.65949 1.3979 11.5505C3.50864 14.4413 7.41045 15.3639 10.5922 13.7243L11.5103 14.6425C11.6339 14.7662 11.8343 14.7662 11.958 14.6425L12.1818 14.4186L16.3027 18.5412C16.9216 19.1548 17.9201 19.1527 18.5363 18.5363C19.1527 17.92 19.1548 16.9214 18.5413 16.3023ZM2.55375 11.9556C-0.0451851 9.35816 -0.0462672 5.14527 2.55143 2.54679C5.14898 -0.0518477 9.36135 -0.0518477 11.959 2.54679C14.5567 5.14527 14.5557 9.35816 11.9567 11.9556C11.8482 12.0642 11.7361 12.1688 11.6205 12.2693C11.2744 12.5714 10.8978 12.8367 10.4968 13.0608C7.89848 14.5029 4.65971 14.0522 2.55375 11.9556ZM11.162 13.4004C11.1759 13.3914 11.1892 13.3817 11.2028 13.3728C11.2411 13.3481 11.2786 13.3215 11.3163 13.2962C11.4067 13.2351 11.4961 13.1726 11.5834 13.1077C11.6256 13.0765 11.6678 13.0449 11.71 13.0128C11.7944 12.9469 11.878 12.8789 11.9607 12.8088C11.9969 12.7771 12.0336 12.7484 12.0691 12.717C12.184 12.616 12.2964 12.5121 12.405 12.4036C12.5136 12.2949 12.6174 12.1819 12.7184 12.0676C12.7501 12.0321 12.7798 11.9954 12.8102 11.9596C12.8802 11.8773 12.9483 11.7937 13.0141 11.7085C13.0464 11.6663 13.0781 11.6241 13.109 11.5819C13.1747 11.4939 13.2381 11.4041 13.299 11.3127C13.3241 11.2757 13.35 11.2393 13.3741 11.2015C13.3833 11.1876 13.393 11.1743 13.4023 11.1601L13.9721 11.7301L11.7326 13.9706L11.162 13.4004ZM18.0936 18.0935C17.7178 18.4525 17.1262 18.4525 16.7502 18.0935L12.6278 13.9706L13.9712 12.6272L18.0936 16.7504C18.4646 17.1213 18.4646 17.7226 18.0936 18.0935Z"
              fill="#755232" />
          </svg>