<svg width="35" height="35" viewBox="0 0 35 35" fill="none" xmlns="http://www.w3.org/2000/svg">
<path d="M33.25 12.8333H29.4583C29.3965 12.6747 29.3287 12.5132 29.2552 12.3463L31.9386 9.66288C32.6225 8.97929 32.6225 7.87073 31.9386 7.18713L27.8146 3.06307C27.131 2.37919 26.0224 2.37919 25.3388 3.06307L22.6554 5.74646C22.4885 5.67297 22.327 5.60518 22.1684 5.54338V1.75C22.1684 0.783569 21.3848 0 20.4184 0H14.5833C13.6169 0 12.8333 0.783569 12.8333 1.75V5.54167C12.6747 5.60348 12.5132 5.67127 12.3463 5.74475L9.66288 3.06136C8.97929 2.37748 7.87073 2.37748 7.18713 3.06136L3.0625 7.18542C2.38005 7.86959 2.38005 8.97701 3.0625 9.66117L5.74589 12.3446C5.6724 12.5115 5.60461 12.673 5.54281 12.8316H1.75C0.783569 12.8316 0 13.6152 0 14.5816V20.4167C0 21.3831 0.783569 22.1667 1.75 22.1667H5.54167C5.60348 22.3253 5.67127 22.4868 5.74475 22.6537L3.06136 25.3371C2.37748 26.0207 2.37748 27.1293 3.06136 27.8129L7.18542 31.9369C7.86959 32.6194 8.97701 32.6194 9.66117 31.9369L12.3446 29.2535C12.5115 29.327 12.673 29.3948 12.8316 29.4566V33.25C12.8316 34.2164 13.6152 35 14.5816 35H20.4167C21.3831 35 22.1667 34.2164 22.1667 33.25V29.4583C22.3253 29.3965 22.4868 29.3287 22.6537 29.2552L25.3371 31.9386C26.0213 32.6211 27.1287 32.6211 27.8129 31.9386L31.9375 27.8146C32.62 27.1304 32.62 26.023 31.9375 25.3388L29.2541 22.6554C29.3276 22.4885 29.3954 22.327 29.4572 22.1684H33.25C34.2164 22.1684 35 21.3848 35 20.4184V14.5833C35 13.6169 34.2164 12.8333 33.25 12.8333ZM33.8333 20.4167C33.8333 20.7388 33.5721 21 33.25 21H29.0499C28.8007 21 28.5791 21.1584 28.4982 21.3942C28.3634 21.7807 28.2062 22.1593 28.0279 22.5278C27.9222 22.7514 27.969 23.0175 28.1447 23.1915L31.1138 26.1608C31.2234 26.2702 31.2852 26.4189 31.2852 26.5739C31.2852 26.7288 31.2234 26.8772 31.1138 26.9869L26.9897 31.1109C26.7584 31.3311 26.395 31.3311 26.1637 31.1109L23.1946 28.1418C23.0203 27.9661 22.7543 27.9194 22.5307 28.0251C22.1621 28.2034 21.7839 28.3603 21.3973 28.4953C21.1592 28.5754 20.9991 28.799 21 29.0499V33.25C21 33.5721 20.7388 33.8333 20.4167 33.8333H14.5833C14.2612 33.8333 14 33.5721 14 33.25V29.0499C14 28.8007 13.8416 28.5791 13.6058 28.4982C13.2193 28.3634 12.8407 28.2062 12.4722 28.0279C12.2486 27.9222 11.9825 27.969 11.8085 28.1447L8.83915 31.1138C8.60787 31.3339 8.24471 31.3339 8.01314 31.1138L3.88908 26.9897C3.77942 26.8803 3.71761 26.7316 3.71761 26.5767C3.71761 26.4218 3.77942 26.2731 3.88908 26.1637L6.85815 23.1946C7.0339 23.0203 7.08061 22.7543 6.97494 22.5307C6.79663 22.1621 6.63969 21.7839 6.50468 21.3973C6.42464 21.1592 6.20105 20.9991 5.95011 21H1.75C1.42786 21 1.16667 20.7388 1.16667 20.4167V14.5833C1.16667 14.2612 1.42786 14 1.75 14H5.95011C6.19934 14 6.42094 13.8416 6.50183 13.6058C6.63656 13.2193 6.79378 12.8407 6.97209 12.4722C7.07776 12.2486 7.03105 11.9825 6.85531 11.8085L3.88623 8.83915C3.77657 8.72978 3.71476 8.5811 3.71476 8.42615C3.71476 8.2712 3.77657 8.1228 3.88623 8.01314L8.01029 3.88908C8.24129 3.66833 8.60531 3.66833 8.8363 3.88908L11.8054 6.85815C11.9797 7.0339 12.2457 7.08061 12.4693 6.97494C12.8379 6.79663 13.2161 6.63969 13.6027 6.50468C13.8408 6.42464 14.0009 6.20105 14 5.95011V1.75C14 1.42786 14.2612 1.16667 14.5833 1.16667H20.4167C20.7388 1.16667 21 1.42786 21 1.75V5.95011C21 6.19934 21.1584 6.42094 21.3942 6.50183C21.7807 6.63656 22.1593 6.79378 22.5278 6.97209C22.7514 7.07776 23.0175 7.03105 23.1915 6.85531L26.1608 3.88623C26.3921 3.66606 26.7553 3.66606 26.9869 3.88623L31.1109 8.01029C31.2206 8.11967 31.2824 8.26835 31.2824 8.4233C31.2824 8.57825 31.2206 8.72693 31.1109 8.8363L28.1418 11.8054C27.9661 11.9797 27.9194 12.2457 28.0251 12.4693C28.2034 12.8379 28.3603 13.2161 28.4953 13.6027C28.5754 13.8408 28.799 14.0009 29.0499 14H33.25C33.5721 14 33.8333 14.2612 33.8333 14.5833V20.4167Z" fill="white"/>
<path d="M17.5 9.91667C13.3118 9.91667 9.91667 13.3118 9.91667 17.5C9.91667 21.6882 13.3118 25.0833 17.5 25.0833C21.6882 25.0833 25.0833 21.6882 25.0833 17.5C25.0785 13.3138 21.6862 9.92151 17.5 9.91667ZM17.5 23.9167C13.9561 23.9167 11.0833 21.0439 11.0833 17.5C11.0833 13.9561 13.9561 11.0833 17.5 11.0833C21.0439 11.0833 23.9167 13.9561 23.9167 17.5C23.9124 21.0422 21.0422 23.9124 17.5 23.9167Z" fill="white"/>
</svg>
