<?xml version="1.0" encoding="iso-8859-1"?>
<!-- Generator: Adobe Illustrator 19.0.0, SVG Export Plug-In . SVG Version: 6.00 Build 0)  -->
<svg version="1.1" id="Capa_1" xmlns="http://www.w3.org/2000/svg" xmlns:xlink="http://www.w3.org/1999/xlink" x="0px" y="0px"
	 viewBox="0 0 480.001 480.001" style="enable-background:new 0 0 480.001 480.001;" xml:space="preserve">
<linearGradient id="SVGID_1_" gradientUnits="userSpaceOnUse" x1="-26.8749" y1="528.1718" x2="-26.8749" y2="582.2168" gradientTransform="matrix(8 0 0 -8 454.9999 4688.9712)">
	<stop  offset="0" style="stop-color:#006DF0"/>
	<stop  offset="1" style="stop-color:#00E7F0"/>
</linearGradient>
<path style="fill:url(#SVGID_1_);" d="M478.264,95.021c-1.518-1.91-3.824-3.024-6.264-3.024H76.08l-3.328-28.616
	c-2.343-20.168-19.424-35.382-39.728-35.384H8c-4.418,0-8,3.582-8,8s3.582,8,8,8h25.024c12.181-0.001,22.431,9.124,23.84,21.224
	L92.8,376.581c2.183,18.697,17.152,33.316,35.896,35.056c4.251,26.135,28.885,43.876,55.02,39.624
	c20.223-3.29,36.121-19.067,39.564-39.264h81.44c4.418,26.139,29.19,43.747,55.329,39.329s43.747-29.19,39.329-55.329
	s-29.19-43.747-55.329-39.329c-20.143,3.405-35.924,19.186-39.329,39.329h-81.44c-4.423-26.107-29.172-43.685-55.278-39.263
	c-19.976,3.384-35.669,18.96-39.202,38.911c-10.64-1.639-18.872-10.186-20.112-20.88l-6.752-58.768h245.696
	c48.49,0.176,90.605-33.328,101.336-80.616l30.832-133.6C480.342,99.411,479.776,96.924,478.264,95.021L478.264,95.021z
	 M352,371.997c17.673,0,32,14.327,32,32s-14.327,32-32,32s-32-14.327-32-32S334.327,371.997,352,371.997z M176,371.997
	c17.673,0,32,14.327,32,32s-14.327,32-32,32s-32-14.327-32-32S158.327,371.997,176,371.997z M433.376,231.789
	c-9.079,40.012-44.715,68.36-85.744,68.208H100.088l-22.152-192h384L433.376,231.789z"/>
<linearGradient id="SVGID_2_" gradientUnits="userSpaceOnUse" x1="-23.881" y1="528.1718" x2="-23.881" y2="582.2168" gradientTransform="matrix(8 0 0 -8 454.9999 4688.9712)">
	<stop  offset="0" style="stop-color:#006DF0"/>
	<stop  offset="1" style="stop-color:#00E7F0"/>
</linearGradient>
<path style="fill:url(#SVGID_2_);" d="M196.12,271.877c3.124,3.123,8.188,3.123,11.312,0L264,215.309l56.568,56.568
	c3.178,3.07,8.242,2.982,11.312-0.196c2.995-3.1,2.995-8.016,0-11.116l-56.568-56.568l56.568-56.568
	c3.069-3.178,2.982-8.243-0.196-11.312c-3.1-2.994-8.015-2.994-11.116,0L264,192.685l-56.568-56.568
	c-3.178-3.069-8.243-2.981-11.312,0.197c-2.994,3.1-2.994,8.015,0,11.115l56.568,56.568l-56.568,56.568
	C192.997,263.689,192.997,268.753,196.12,271.877L196.12,271.877z"/>
<g>
</g>
<g>
</g>
<g>
</g>
<g>
</g>
<g>
</g>
<g>
</g>
<g>
</g>
<g>
</g>
<g>
</g>
<g>
</g>
<g>
</g>
<g>
</g>
<g>
</g>
<g>
</g>
<g>
</g>
</svg>
