<svg width="17" height="35" viewBox="0 0 17 35" fill="none" xmlns="http://www.w3.org/2000/svg">
<path d="M16.8745 6.41666C16.8731 6.03651 16.7722 5.66727 16.5871 5.36479C16.4021 5.06232 16.1429 4.84305 15.8489 4.74016L15.2517 1.76517C15.1504 1.26046 14.9164 0.812447 14.5867 0.492538C14.2571 0.17263 13.8509 -0.000760781 13.4329 2.50932e-06H3.44105C3.02279 -0.000631421 2.61641 0.173094 2.28675 0.493457C1.9571 0.813821 1.72317 1.26236 1.6223 1.7675L1.02511 4.7425C0.735232 4.84219 0.478935 5.05562 0.294306 5.35105C0.109677 5.64649 0.00656871 6.00817 0.000303411 6.38235C-0.00596189 6.75653 0.0849498 7.12324 0.25953 7.42799C0.434109 7.73274 0.68304 7.95927 0.969331 8.07391L1.14605 10.6143C1.11676 10.6346 1.08927 10.6586 1.06402 10.6861C1.02021 10.7441 0.986417 10.8128 0.964731 10.8877C0.943045 10.9626 0.933923 11.0423 0.937925 11.1218L1.40667 20.4551C1.41415 20.6025 1.46624 20.7408 1.55245 20.8423C1.63866 20.9437 1.75257 21.0007 1.87121 21.0017L2.66386 32.3405C2.71283 33.0686 2.9807 33.7468 3.41396 34.2398C3.84722 34.7328 4.41399 35.0043 5.00105 35H11.8729C12.4603 35.0042 13.0273 34.7324 13.4606 34.239C13.8939 33.7455 14.1616 33.0667 14.2101 32.3382L15.0028 21C15.1216 20.9992 15.2359 20.9423 15.3223 20.8407C15.4087 20.7391 15.4609 20.6005 15.4682 20.4528L15.937 11.1195C15.941 11.04 15.9319 10.9603 15.9102 10.8854C15.8885 10.8104 15.8547 10.7418 15.8109 10.6837C15.7856 10.6563 15.7582 10.6323 15.7289 10.612L15.9056 8.07157C16.1865 7.95774 16.4314 7.7365 16.6054 7.43935C16.7793 7.1422 16.8735 6.78431 16.8745 6.41666ZM2.53074 2.05042C2.58147 1.79783 2.69865 1.57361 2.86361 1.41347C3.02856 1.25332 3.23183 1.16645 3.44105 1.16667H13.4329C13.6421 1.16645 13.8454 1.25332 14.0104 1.41347C14.1753 1.57361 14.2925 1.79783 14.3432 2.05042L14.8678 4.66666H2.00621L2.53074 2.05042ZM1.40574 5.83333H15.4682C15.5926 5.83333 15.7118 5.89479 15.7997 6.00418C15.8876 6.11358 15.937 6.26195 15.937 6.41666C15.937 6.57137 15.8876 6.71974 15.7997 6.82914C15.7118 6.93853 15.5926 6.99999 15.4682 6.99999H1.40574C1.28142 6.99999 1.16219 6.93853 1.07428 6.82914C0.986373 6.71974 0.936987 6.57137 0.936987 6.41666C0.936987 6.26195 0.986373 6.11358 1.07428 6.00418C1.16219 5.89479 1.28142 5.83333 1.40574 5.83333ZM14.5593 19.8333H2.31464L1.90449 11.6667H14.9695L14.5593 19.8333ZM14.7937 10.5H2.07933L1.91667 8.16666H14.9573L14.7937 10.5ZM13.2764 32.2367C13.2432 32.672 13.0813 33.0765 12.8219 33.3716C12.5625 33.6666 12.2243 33.8312 11.8729 33.8333H5.00105C4.64973 33.8312 4.31157 33.6667 4.05223 33.3718C3.79288 33.0769 3.63086 32.6725 3.59761 32.2373L2.81199 21H14.062L13.2764 32.2367Z" fill="white"/>
<path d="M8.43702 19.25C8.99328 19.25 9.53705 19.0447 9.99956 18.6601C10.4621 18.2755 10.8226 17.7289 11.0354 17.0894C11.2483 16.4498 11.304 15.7461 11.1955 15.0672C11.087 14.3882 10.8191 13.7646 10.4258 13.2751C10.0324 12.7856 9.53128 12.4523 8.98571 12.3172C8.44014 12.1822 7.87464 12.2515 7.36072 12.5164C6.84681 12.7813 6.40756 13.2299 6.09851 13.8055C5.78947 14.3811 5.62452 15.0577 5.62452 15.75C5.62527 16.6779 5.92182 17.5676 6.44911 18.2238C6.97639 18.88 7.69133 19.249 8.43702 19.25ZM8.43702 13.4166C8.80786 13.4166 9.17037 13.5535 9.47871 13.8099C9.78706 14.0663 10.0274 14.4307 10.1693 14.857C10.3112 15.2834 10.3483 15.7526 10.276 16.2052C10.2036 16.6578 10.0251 17.0736 9.76284 17.3999C9.50062 17.7262 9.16653 17.9484 8.80281 18.0385C8.4391 18.1285 8.0621 18.0823 7.71949 17.9057C7.37688 17.7291 7.08404 17.43 6.87802 17.0463C6.67199 16.6626 6.56202 16.2115 6.56202 15.75C6.56202 15.1311 6.75957 14.5376 7.1112 14.1001C7.46283 13.6625 7.93974 13.4166 8.43702 13.4166Z" fill="white"/>
</svg>
