<svg width="35" height="35" viewBox="0 0 35 35" fill="white" xmlns="http://www.w3.org/2000/svg">
<path d="M17.5 0C7.83512 0 0 7.83512 0 17.5C0 27.1649 7.83512 35 17.5 35C18.0272 35 18.5525 34.9764 19.0751 34.9294C19.561 34.8858 20.0427 34.8191 20.5206 34.7357L20.7043 34.7032C29.5902 33.0449 35.7514 24.8922 34.9202 15.891C34.0891 6.88977 26.5394 0.00284831 17.5 0ZM16.0941 33.7715H16.0528C15.599 33.7314 15.1487 33.6707 14.7024 33.5929C14.6768 33.5884 14.6511 33.5855 14.6261 33.5807C14.1897 33.5026 13.7579 33.4058 13.3304 33.2927L13.227 33.2662C12.81 33.1532 12.3975 33.0219 11.9911 32.876C11.9489 32.8609 11.9065 32.8475 11.8643 32.8319C11.4659 32.6855 11.0745 32.5214 10.6891 32.344C10.6413 32.3226 10.5934 32.3021 10.5456 32.2793C10.1676 32.1044 9.79704 31.9073 9.43359 31.7C9.38232 31.6709 9.33049 31.6418 9.27922 31.6131C8.92147 31.4043 8.57198 31.1804 8.22904 30.944C8.17721 30.9078 8.1248 30.8728 8.07324 30.8366C7.73629 30.5977 7.40788 30.3439 7.08801 30.0784L7 30.0015V25.0833C7.00427 21.5412 9.87451 18.6709 13.4167 18.6667H21.5833C25.1255 18.6709 27.9957 21.5412 28 25.0833V30.0021L27.9225 30.0667C27.5964 30.339 27.2617 30.5965 26.9179 30.8398C26.8724 30.8717 26.8262 30.9021 26.7809 30.9335C26.434 31.1744 26.0785 31.4012 25.7145 31.6142C25.6689 31.6407 25.6222 31.6658 25.5769 31.692C25.2081 31.9019 24.833 32.1001 24.4504 32.2787C24.4066 32.2992 24.3624 32.3183 24.318 32.3371C23.9295 32.5163 23.5347 32.6812 23.1334 32.8287C23.0935 32.8435 23.0533 32.8564 23.0166 32.8703C22.6082 33.0167 22.194 33.1492 21.7747 33.2628L21.6742 33.2879C21.2461 33.401 20.814 33.4984 20.3771 33.5767C20.352 33.5813 20.3269 33.5844 20.3019 33.5884C19.855 33.6664 19.4041 33.7271 18.9501 33.7675H18.9088C18.4422 33.8077 17.9754 33.8293 17.5028 33.8293C17.0303 33.8293 16.5598 33.8117 16.0941 33.7715ZM29.1667 28.9206V25.0833C29.1618 20.8972 25.7695 17.5048 21.5833 17.5H13.4167C9.23051 17.5048 5.83818 20.8972 5.83333 25.0833V28.92C-0.449463 22.5076 -0.379395 12.2266 5.98999 5.90027C12.3594 -0.425822 22.6406 -0.425822 29.01 5.90027C35.3794 12.2266 35.4495 22.5082 29.1667 28.9206Z" fill="white"/>
<path d="M17.5 4.66667C14.2783 4.66667 11.6667 7.27828 11.6667 10.5C11.6667 13.7217 14.2783 16.3333 17.5 16.3333C20.7217 16.3333 23.3333 13.7217 23.3333 10.5C23.3299 7.2797 20.7203 4.67008 17.5 4.66667ZM17.5 15.1667C14.9226 15.1667 12.8333 13.0774 12.8333 10.5C12.8333 7.92257 14.9226 5.83333 17.5 5.83333C20.0774 5.83333 22.1667 7.92257 22.1667 10.5C22.1638 13.076 20.076 15.1638 17.5 15.1667Z" fill="white"/>
</svg>
